<svg id="icon-ui-svg" xmlns="http://www.w3.org/2000/svg" viewBox="0 0 64 64"><path d="M50.5 21.1h-5.6v-8h-2v-.6a3.404 3.404 0 0 0-3.4-3.4h-.618a4.386 4.386 0 0 0-8.095-1.927 5.34 5.34 0 0 0-1.656.499 6.37 6.37 0 0 0-4.785-.196A8.323 8.323 0 0 0 18.5 5.1a8.41 8.41 0 0 0-8.4 8.4 8.321 8.321 0 0 0 1.455 4.712A10.376 10.376 0 0 0 16.1 32.919V50.5a3.404 3.404 0 0 0 3.4 3.4h22a3.404 3.404 0 0 0 3.4-3.4v-4.6h5.6a4.405 4.405 0 0 0 4.4-4.4v-16a4.405 4.405 0 0 0-4.4-4.4zm-34.4-4v14.906a9.551 9.551 0 0 1-3.728-13.597l.144-.23-.16-.218A7.593 7.593 0 0 1 23.96 8.22l.188.193.25-.1a5.574 5.574 0 0 1 4.566.164l.185.091.181-.098a4.545 4.545 0 0 1 1.737-.524l.208-.02.103-.182A3.587 3.587 0 0 1 38.1 9.5v.4h1.4a2.603 2.603 0 0 1 2.6 2.6v.6H23.782l-.109.23c-1.065 2.255-3.947 3.77-7.173 3.77zm28 6H42v.8h2.1v26.6a2.603 2.603 0 0 1-2.6 2.6h-22a2.603 2.603 0 0 1-2.6-2.6V23.9H39v-.8H16.9v-5.207c3.26-.12 6.159-1.685 7.382-3.993H44.1zm10 18.4a3.604 3.604 0 0 1-3.6 3.6h-5.6V21.9h5.6a3.604 3.604 0 0 1 3.6 3.6zM40.9 46h-.8V20h.8z" id="icon-ui-svg--base"/></svg>